<svg height="512pt" viewBox="-4 0 512 512" width="512pt" xmlns="http://www.w3.org/2000/svg"><path d="m434.515625 180.449219 50.660156-51.402344c15.738281-15.972656 15.738281-41.863281 0-57.828125l-50.660156-51.40625c-15.742187-15.96875-41.253906-15.96875-56.996094 0l-50.660156 51.40625zm0 0" fill="#e1eaf8"/><path d="m414.105469 209.726562-116.101563-117.800781-242.75 246.308594s-6.511718 6.074219-7.316406 9.027344l-39.8125 146.234375c-.804688 2.953125-.003906 6.085937 2.101562 8.222656 2.105469 2.132812 5.195313 2.945312 8.101563 2.132812l144.125-40.394531c2.910156-.816406 8.898437-7.425781 8.898437-7.425781zm0 0" fill="#ffc843"/><path d="m169.597656 442.816406c-9.730468-9.875-22.269531-15.160156-35.011718-15.875-.703126-12.929687-5.914063-25.652344-15.648438-35.527344s-22.269531-15.160156-35.011719-15.875c-.707031-12.929687-5.914062-25.652343-15.648437-35.523437-2.53125-2.570313-5.253906-4.816406-8.113282-6.765625l-4.910156 4.984375s-6.515625 6.074219-7.320312 9.027344l-39.808594 146.234375c-.804688 2.953125-.003906 6.085937 2.101562 8.222656 2.105469 2.132812 5.195313 2.945312 8.101563 2.132812l144.125-40.394531c2.910156-.816406 8.898437-7.425781 8.898437-7.425781l4.914063-4.984375c-1.921875-2.902344-4.136719-5.664063-6.667969-8.230469zm0 0" fill="#fff"/><path d="m458.863281 177.136719c-8.695312 8.824219-22.792969 8.824219-31.492187 0l-97.25-98.675781c-8.695313-8.824219-8.695313-23.128907 0-31.953126 8.695312-8.820312 22.796875-8.820312 31.492187.003907l97.25 98.671875c8.695313 8.824218 8.695313 23.128906 0 31.953125zm0 0" fill="#76ffd9"/><path d="m355.511719 42.144531c-8.285157-4.042969-18.519531-2.605469-25.390625 4.363281-8.695313 8.824219-8.695313 23.128907 0 31.953126l22.914062 21.421874c-8.695312-8.824218-8.695312-23.132812 0-31.953124 6.871094-6.96875 17.105469-8.410157 25.390625-4.367188" fill="#5de0bf"/><path d="m378.425781 63.5625 22.007813-22.328125c13.273437-13.46875 33.503906-15.578125 48.957031-6.328125l-14.875-15.09375c-15.742187-15.96875-41.253906-15.96875-56.996094 0l-22.007812 22.332031" fill="#d8e0ea"/><path d="m426.757812 209.714844c-8.695312 8.824218-22.796874 8.824218-31.492187 0l-97.25-98.675782c-8.695313-8.824218-8.695313-23.128906 0-31.953124 8.695313-8.824219 22.792969-8.820313 31.492187.003906l97.25 98.675781c8.695313 8.820313 8.695313 23.125 0 31.949219zm0 0" fill="#76ffd9"/><path d="m313.574219 119.851562c-.960938-6.804687 1.113281-13.960937 6.269531-19.195312 7.6875-7.800781 19.597656-8.691406 28.265625-2.691406l-18.605469-18.875c-8.695312-8.824219-22.792968-8.828125-31.492187-.003906-5.15625 5.234374-7.226563 12.390624-6.269531 19.191406" fill="#5de0bf"/><path d="m68.277344 340.011719c5.003906 5.078125 8.804687 10.914062 11.421875 17.140625l233.875-237.300782-21.832031-21.574218-236.488282 239.957031 4.910156-4.984375c2.863282 1.945312 5.585938 4.195312 8.113282 6.761719zm0 0" fill="#ffb400"/><path d="m69.765625 368.832031c.804687-2.949219 7.320313-9.027343 7.320313-9.027343l2.613281-2.652344c-2.617188-6.226563-6.417969-12.0625-11.421875-17.140625-2.527344-2.566407-5.25-4.816407-8.113282-6.761719l-4.910156 4.984375s-6.511718 6.074219-7.316406 9.027344l-39.8125 146.234375c-.804688 2.953125-.003906 6.085937 2.101562 8.222656 2.105469 2.132812 5.195313 2.945312 8.101563 2.132812l15.890625-4.453124zm0 0" fill="#e1eaf8"/><g fill="#434c54"><path d="m22.230469 441.683594-14.105469 51.8125c-.804688 2.953125-.003906 6.085937 2.101562 8.222656 2.105469 2.132812 5.195313 2.949219 8.105469 2.132812l51.0625-14.3125zm0 0"/><path d="m490.773438 65.714844-50.664063-51.398438c-9.09375-9.234375-21.199219-14.316406-34.078125-14.316406s-24.980469 5.082031-34.078125 14.3125l-18.453125 18.726562c-2.460938-.644531-5.011719-.980468-7.617188-.980468-8.0625 0-15.636718 3.175781-21.328124 8.949218-6.394532 6.488282-9.277344 15.203126-8.664063 23.707032-.703125-.050782-1.40625-.082032-2.117187-.082032-8.0625 0-15.636719 3.179688-21.324219 8.953126-5.894531 5.980468-8.808594 13.851562-8.75 21.707031l-233.898438 237.324219c-3.695312 3.460937-8.277343 8.414062-9.414062 12.585937l-39.808594 146.238281c-1.53125 5.625.03125 11.671875 4.082031 15.777344 3.039063 3.082031 7.097656 4.78125 11.433594 4.78125 1.46875 0 2.9375-.203125 4.367188-.601562l144.125-40.394532c3.347656-.9375 7.542968-4.164062 12.476562-9.585937l233.828125-237.25h.136719c8.0625 0 15.636718-3.179688 21.328125-8.953125 6.394531-6.484375 9.273437-15.203125 8.664062-23.707032.699219.050782 1.40625.085938 2.113281.085938 8.0625 0 15.636719-3.179688 21.328126-8.953125 7.800781-7.914063 10.378906-19.144531 7.75-29.261719l18.558593-18.832031c18.703125-18.976563 18.703125-49.855469.003907-68.832031zm-330.878907 390.324218-143.65625 40.265626c-.167969.046874-.3125.015624-.417969-.089844-.144531-.144532-.191406-.402344-.121093-.660156l39.695312-145.804688c.695313-1.136719 233.566407-237.472656 233.566407-237.472656 1.019531 1.5 2.171874 2.929687 3.484374 4.261718l18.402344 18.667969-222.722656 225.699219c-2.992188 3.035156-2.976562 7.917969.039062 10.933594.035157.039062.074219.074218.109376.113281 3.042968 3.042969 7.984374 3.027344 11.007812-.039063l222.570312-225.539062 38.601563 39.167969-222.359375 225.332031c-2.996094 3.035156-2.980469 7.917969.035156 10.933594.039063.039062.074219.074218.113282.109375 3.042968 3.046875 7.984374 3.03125 11.007812-.035157l222.207031-225.175781 18.242188 18.507813c1.359375 1.378906 2.824219 2.601562 4.378906 3.679687 0 0-233.058594 236.425781-234.183594 237.144531zm261.296875-251.824218c-2.722656 2.761718-6.332031 4.28125-10.164062 4.28125-3.832032 0-7.445313-1.519532-10.164063-4.28125l-97.25-98.675782c-5.695312-5.777343-5.695312-15.175781 0-20.953124 2.71875-2.761719 6.328125-4.28125 10.160157-4.28125 3.832031 0 7.445312 1.519531 10.164062 4.285156l97.253906 98.675781c5.691406 5.773437 5.691406 15.171875 0 20.949219zm32.105469-32.578125c-2.71875 2.761719-6.332031 4.28125-10.164063 4.28125-3.832031 0-7.441406-1.519531-10.164062-4.28125l-97.25-98.675781c-5.695312-5.777344-5.695312-15.175782-.003906-20.949219 2.722656-2.761719 6.332031-4.28125 10.164062-4.28125 3.835938 0 7.445313 1.519531 10.167969 4.28125l97.25 98.675781c5.695313 5.773438 5.695313 15.171875 0 20.949219zm26.3125-48.09375-15.527344 15.753906-96.652343-98.066406 15.6875-15.914063c6.128906-6.21875 14.265624-9.644531 22.914062-9.644531s16.789062 3.425781 22.917969 9.644531l50.660156 51.402344c12.722656 12.910156 12.722656 33.917969 0 46.824219zm0 0"/></g></svg>