<svg id="pencil" enable-background="new 0 0 300 300" height="512" viewBox="0 0 300 300" width="512" xmlns="http://www.w3.org/2000/svg" xmlns:xlink="http://www.w3.org/1999/xlink"><linearGradient id="SVGID_1_" gradientUnits="userSpaceOnUse" x1="32.533" x2="201.961" y1="252.175" y2="82.747"><stop offset="0" stop-color="#107eff"/><stop offset="1" stop-color="#8f16ff"/></linearGradient><g><path d="m230.016 153.999c0-7.719-6.281-14-14-14s-14 6.281-14 14 6.281 14 14 14 14-6.281 14-14zm-20 0c0-3.309 2.691-6 6-6s6 2.691 6 6-2.691 6-6 6-6-2.691-6-6zm-51.395 68.391c0 2.362-1.915 4.276-4.277 4.276s-4.276-1.915-4.276-4.276 1.915-4.277 4.276-4.277 4.277 1.916 4.277 4.277zm28-12c0 2.362-1.915 4.276-4.277 4.276s-4.276-1.915-4.276-4.276 1.915-4.277 4.276-4.277 4.277 1.916 4.277 4.277zm43.395-2.391c0-2.211 1.791-4 4-4s4 1.789 4 4v8c0 2.211-1.791 4-4 4s-4-1.789-4-4zm8 24v8c0 2.211-1.791 4-4 4s-4-1.789-4-4v-8c0-2.211 1.791-4 4-4s4 1.789 4 4zm-8-8c0 2.211-1.791 4-4 4h-8c-2.209 0-4-1.789-4-4s1.791-4 4-4h8c2.209 0 4 1.789 4 4zm24 0c0 2.211-1.791 4-4 4h-8c-2.209 0-4-1.789-4-4s1.791-4 4-4h8c2.209 0 4 1.789 4 4zm-124.713-87.514 53.787-11.916c.346-.078.68-.199.992-.363l34.117-17.879c1.602-.84 2.441-2.648 2.047-4.414s-1.926-3.047-3.732-3.125l-38.449-1.648c-.346-.023-.693.016-1.031.09l-71.018 15.734v-13.199c0-10.898-8.867-19.766-19.766-19.766h-.234v-4h8c2.209 0 4-1.789 4-4v-28c0-11.027-8.973-20-20-20h-4c-11.027 0-20 8.973-20 20v12c0 .449.082.887.234 1.297.435 3.564 1.808 6.808 3.771 9.6 0 .01-.006.019-.006.029v14.089c-4.694 1.973-8 6.615-8 12.017l.004 66.789-4.031 90.387c-.006.137-.006.273.002.41.502 8.68 3.562 16.914 8.85 23.816.924 1.203 2.445 1.789 3.939 1.492 1.49-.289 2.688-1.398 3.092-2.859l18.713-67.668 7.051 51.414c.029.215.076.426.139.633 1.426 4.641 3.785 8.828 7.014 12.453l4.242 4.762c.773.871 1.867 1.34 2.986 1.34.479 0 .961-.086 1.424-.262 1.551-.59 2.576-2.078 2.576-3.738v-112-5.279l13.314 2.826c.836.176 1.672.262 2.494.262 5.545 0 10.539-3.875 11.736-9.508.666-3.137.07-6.344-1.676-9.031-.706-1.089-1.599-1.996-2.581-2.785zm-7.969-18.719 2.59 11.685-10.39 2.329-25.188-5.348-.516-1.244zm11.716-2.596 2.583 11.656-3.904.875-2.585-11.665zm45.516 2.03-35.127 7.876-2.579-11.636 35.148-7.787zm-80.55-17.435v14.971l-13.298 2.946-10.525-25.386c-.709-1.711-1.796-3.137-3.092-4.297h15.149c6.488 0 11.766 5.277 11.766 11.766zm-22.731-31.766c-5.351 0-10-3.292-12.052-8h6.782c2.209 0 4-1.789 4-4v-8h16v20zm-1.269-36h4c5.208 0 9.606 3.354 11.263 8h-19.263c-2.209 0-4 1.789-4 4v8h-4v-8c0-6.617 5.383-12 12-12zm-17.334 229.816c-1.525-3.617-2.439-7.48-2.691-11.461l3.847-86.355h35.951l-15.029 19.137c-.025.031-.028.071-.052.102-.289.382-.522.812-.657 1.3l-.003.012c-.001.002-.001.004-.001.006zm38.834-6.421-9.416-68.654 11.916-15.174v89.308c-1.043-1.711-1.881-3.543-2.5-5.48zm2.5-99.395h-40v-40.057l10.58 25.514c.91 2.199 2.436 4.059 4.412 5.375 1.277.855 2.682 1.449 4.18 1.77l20.828 4.421zm27.72-9.363c-.459 2.156-2.584 3.531-4.746 3.082l-42.139-8.941c-.498-.109-.969-.309-1.398-.594l-.002-.004c-.656-.438-1.162-1.055-1.465-1.785l-16.574-39.969c-.41-.988-.41-2.074-.002-3.062s1.178-1.754 2.16-2.164c.502-.207 1.02-.305 1.529-.305 1.572 0 3.066.93 3.703 2.465l14.959 36.082c.504 1.219 1.576 2.109 2.865 2.383l38.029 8.074c1.043.219 1.939.836 2.521 1.73s.781 1.965.56 3.008z" fill="url(#SVGID_1_)"/></g></svg>